<svg version="1.2" xmlns="http://www.w3.org/2000/svg" viewBox="0 0 1080 300" width="1080" height="300">
	<style>
		.s0 { fill: #939598 } 
	</style>
	<g id="Layer 1">
	</g>
	<path id="&lt;Compound Path&gt;" class="s0" d="m71.23 29.71v239.59h-44.32v-239.59z"/>
	<path id="&lt;Compound Path&gt;" class="s0" d="m661.54 241.32l-3.17-0.91q-6.66 9.99-11.73 15.2-5.07 5.22-12.4 8.78-7.34 3.55-17.32 5.22-9.98 1.66-22.24 1.66-9.07 0-18.75-1.44-9.68-1.43-18.23-4.84-8.55-3.4-15.13-9.22-6.58-5.83-10.36-14.98-3.78-9.15-3.78-24.73 0-13.46 3.63-21.86 3.63-8.39 10.06-14.75 6.43-6.35 15.58-10.06 9.15-3.7 19.74-5.44 10.59-1.74 20.87-1.74h53.55v-9.53q0-16.79-4.54-24.5-4.54-7.72-12.4-9.46-7.87-1.74-23.75-1.74-13.92 0-22.23 1.82-8.32 1.81-13.24 8.92-4.92 7.11-5.07 22.39h-41.44q0.45-22.69 8.77-34.79 8.32-12.1 19.74-17.32 11.42-5.22 23.6-7.41 12.17-2.19 31.54-2.2 32.52 0 47.64 5.45 15.13 5.45 25.34 19.29 10.21 13.84 10.21 42.12v114.05h-43.11v-10.74q0-2.27 0.76-4.69 0.75-2.41 2.11-4.23zm-56.72 1.36q8.32 0 16.03-1.21 7.72-1.21 14.53-4.08 6.8-2.88 11.19-7.19 4.38-4.31 5.14-9.3l1.06-33.88h-49.01q-6.35 0-11.87 1.06-5.53 1.06-9.76 3.93-4.24 2.87-6.65 8.39-2.42 5.53-2.42 14.45 0 10.59 2.64 16.18 2.65 5.6 7.19 7.94 4.53 2.35 10.28 3.03 5.75 0.68 11.65 0.68z"/>
	<path id="&lt;Compound Path&gt;" class="s0" d="m831.86 89.91h45.98l-54.9 179.39h-63.08l-54.91-179.39h46.14l37.81 143.54q0.3 1.52 0.61 3.33 0.3 1.82 0.45 3.33l0.15 5.6h2.73v-5.6q0.3-1.51 0.53-3.33 0.22-1.81 0.68-3.33z"/>
	<path id="&lt;Path&gt;" class="s0" d="m353.51 142.01v-36.63c0-3.86-0.09-3.2 0-3.72v-71.95h-43.92v239.59h43.92v-101.64l103.17-24.4v125.49h41.13v-147.45c0-15.33-14.31-26.65-29.24-23.12l-112.27 26.32-0.46 16.72z"/>
	<path id="&lt;Compound Path&gt;" class="s0" d="m1031.07 107.91q-21.93-19.82-65.04-19.82-43.11 0-65.04 19.82-21.94 19.81-21.94 71.09 0 51.28 21.94 71.47 21.93 20.19 65.04 20.19 43.11 0 65.04-20.19 21.93-20.19 21.94-71.47-0.01-51.28-21.94-71.09zm-18.17 87.71c-13.15 35.02-44.08 55.79-69.1 46.4-25.02-9.39-34.65-45.39-21.5-80.41 13.14-35.02 44.08-55.79 69.1-46.4 25.02 9.39 34.64 45.39 21.5 80.41z"/>
	<path id="&lt;Compound Path&gt;" class="s0" d="m235.95 171.07q0-34.26-8.13-44.9-8.13-10.63-32.78-10.63-25.35 0-37.77 12.07-8.39 7.85-11.19 21.43v122.23h-41.44v-178.97h41.44v15.54q0 1.36-0.52 2.26l-8.57 12.53 0.7 0.3q4.54-5.88 10.84-12.07 20.63-20.37 57.7-20.37 3.15 0 6.29 0.15 38.64 1.96 51.67 22.56 13.03 20.6 13.03 57.57v100.5h-41.27z"/>
</svg>